<?xml version="1.0" standalone="no"?>
<!DOCTYPE svg PUBLIC "-//W3C//DTD SVG 20010904//EN"
 "http://www.w3.org/TR/2001/REC-SVG-20010904/DTD/svg10.dtd">
<svg version="1.0" xmlns="http://www.w3.org/2000/svg"
 width="700.000000pt" height="700.000000pt" viewBox="0 0 700.000000 700.000000"
 preserveAspectRatio="xMidYMid meet">
<metadata>
Created by potrace 1.11, written by Peter Selinger 2001-2013
</metadata>
<g transform="translate(0.000000,700.000000) scale(0.100000,-0.100000)"
fill="#000000" stroke="none">
<path d="M3300 6964 c-590 -43 -1114 -206 -1590 -494 -849 -514 -1432 -1353
-1619 -2330 -58 -305 -74 -732 -37 -1030 62 -513 219 -976 476 -1400 514 -849
1353 -1432 2330 -1619 397 -76 883 -76 1280 0 1253 239 2267 1132 2658 2339
119 366 166 672 166 1070 0 256 -15 429 -55 640 -187 977 -770 1816 -1619
2330 -423 256 -895 417 -1395 475 -128 15 -488 27 -595 19z m565 -479 c680
-86 1280 -379 1760 -860 438 -437 725 -983 834 -1587 34 -187 45 -320 45 -538
0 -280 -25 -487 -89 -743 -267 -1057 -1115 -1905 -2172 -2172 -256 -64 -463
-89 -743 -89 -280 0 -487 25 -743 89 -1057 267 -1905 1115 -2172 2172 -64 256
-89 463 -89 743 0 280 25 487 89 743 267 1057 1115 1905 2172 2172 179 45 282
61 568 89 81 8 424 -4 540 -19z"/>
<path d="M3156 5680 c-40 -13 -74 -47 -86 -89 -6 -23 -10 -395 -10 -1006 0
-1082 -4 -1013 69 -1062 30 -21 46 -23 150 -23 131 0 164 12 201 72 20 32 20
53 20 1024 l0 991 -23 34 c-36 55 -77 69 -192 68 -55 0 -113 -5 -129 -9z"/>
<path d="M3572 3480 c-18 -11 -41 -34 -52 -52 -19 -32 -20 -52 -20 -803 0
-751 1 -771 20 -803 37 -60 70 -72 201 -72 104 0 120 2 150 23 72 48 69 5 69
852 0 847 3 804 -69 852 -30 21 -46 23 -150 23 -98 0 -121 -3 -149 -20z"/>
</g>
</svg>
